<svg width="75" height="72" fill="none" xmlns="http://www.w3.org/2000/svg"><path d="M29.7 65h16V41.2h-16V65Zm2.9-20.9h10.1v18H32.6v-18Z" fill="#81B3D2"/><path d="m72.83 38.93 2.08-2.12-10-9.8-.29-27.3-13.9.15.15 13.6L37.13 0 .2 37.6l2.13 2.08 7.71-7.88.4 37.6-4 .03.03 2.9 63.9-.66-.04-2.9-5.1.05-.39-37.6 7.98 7.72ZM62.34 68.84l-49 .51-.42-40.6L37.17 4.1l24.75 24.15.42 40.6Zm-.46-44.7-7.98-7.81-.14-13.6 7.9-.08.22 21.5Z" fill="#81B3D2"/><path d="M29.9 27.1c0 4.3 3.5 7.7 7.7 7.7 4.3 0 7.8-3.5 7.8-7.7 0-4.3-3.5-7.7-7.8-7.7a7.7 7.7 0 0 0-7.7 7.7Zm7.8-5a5 5 0 0 1 5 4.9c0 2.7-2.2 4.9-5 4.9a5 5 0 0 1-5-4.9c0-2.7 2.2-4.9 5-4.9ZM20.1 41.2h-3v3.9h3v-3.9ZM26 41.2h-3v3.9h3v-3.9ZM20.1 47.2h-3v3.9h3v-3.9ZM26 47.2h-3v3.9h3v-3.9ZM52 41.2h-3v3.9h3v-3.9ZM57.9 41.2h-3v3.9h3v-3.9ZM52 47.2h-3v3.9h3v-3.9ZM57.9 47.2h-3v3.9h3v-3.9Z" fill="#81B3D2"/></svg>